<?xml version="1.0" encoding="UTF-8" standalone="no"?>
<svg
   width="16"
   height="16"
   version="1.1"
   id="svg2"
   sodipodi:docname="system-switch-user.svg"
   inkscape:version="1.3.2 (091e20e, 2023-11-25)"
   xmlns:inkscape="http://www.inkscape.org/namespaces/inkscape"
   xmlns:sodipodi="http://sodipodi.sourceforge.net/DTD/sodipodi-0.dtd"
   xmlns="http://www.w3.org/2000/svg"
   xmlns:svg="http://www.w3.org/2000/svg">
  <defs
     id="defs2" />
  <sodipodi:namedview
     id="namedview2"
     pagecolor="#ffffff"
     bordercolor="#000000"
     borderopacity="0.25"
     inkscape:showpageshadow="2"
     inkscape:pageopacity="0.0"
     inkscape:pagecheckerboard="0"
     inkscape:deskcolor="#d1d1d1"
     inkscape:zoom="8.3416503"
     inkscape:cx="-19.180857"
     inkscape:cy="8.8112061"
     inkscape:window-width="1680"
     inkscape:window-height="994"
     inkscape:window-x="0"
     inkscape:window-y="25"
     inkscape:window-maximized="1"
     inkscape:current-layer="svg2" />
  <path
     d="m10 2c-1.66 0-3 1.34-3 3 0 1.65 1.34 3 3 3s3-1.35 3-3c0-1.66-1.34-3-3-3zm0 8c-5.277 0-6 4-6 4v1h12v-1s0-4-6-4z"
     fill="#666"
     id="path1"
     style="fill:#b4b4b4;fill-opacity:1" />
  <path
     d="m5 3.9492c-1.43 0-2.5898 1.1315-2.5898 2.5215 0 1.4 1.1598 2.5293 2.5898 2.5293 0.92 0 1.7197-0.46992 2.1797-1.1699-0.73-0.73-1.1797-1.7301-1.1797-2.8301 0-0.28 0.030078-0.55055 0.080078-0.81055-0.3301-0.15-0.69008-0.24023-1.0801-0.24023zm0 6.0508c-5 0-5 3-5 3v1h3s0.00922-1.3396 0.94922-2.5996c0.37-0.5 0.91156-0.98086 1.6016-1.3809-0.18-0.01-0.35078-0.019531-0.55078-0.019531z"
     fill="#666"
     opacity=".3"
     id="path2" />
</svg>
