<?xml version="1.0" encoding="UTF-8" standalone="no"?>
<!-- Created with Inkscape (http://www.inkscape.org/) -->

<svg
   width="64"
   height="64"
   viewBox="0 0 64 64"
   version="1.1"
   id="svg1015"
   inkscape:version="1.3.2 (091e20e, 2023-11-25)"
   sodipodi:docname="input-touchscreen.svg"
   inkscape:export-filename="../input-touchscreen.png"
   inkscape:export-xdpi="373.71429"
   inkscape:export-ydpi="373.71429"
   xmlns:inkscape="http://www.inkscape.org/namespaces/inkscape"
   xmlns:sodipodi="http://sodipodi.sourceforge.net/DTD/sodipodi-0.dtd"
   xmlns:xlink="http://www.w3.org/1999/xlink"
   xmlns="http://www.w3.org/2000/svg"
   xmlns:svg="http://www.w3.org/2000/svg">
  <sodipodi:namedview
     id="namedview1017"
     pagecolor="#ffffff"
     bordercolor="#000000"
     borderopacity="0.25"
     inkscape:showpageshadow="2"
     inkscape:pageopacity="0.0"
     inkscape:pagecheckerboard="0"
     inkscape:deskcolor="#d1d1d1"
     inkscape:document-units="px"
     showgrid="false"
     inkscape:zoom="8.0000004"
     inkscape:cx="23.937499"
     inkscape:cy="42.312498"
     inkscape:window-width="1680"
     inkscape:window-height="994"
     inkscape:window-x="0"
     inkscape:window-y="25"
     inkscape:window-maximized="1"
     inkscape:current-layer="svg1015" />
  <defs
     id="defs1012">
    <linearGradient
       inkscape:collect="always"
       xlink:href="#linearGradient2986"
       id="linearGradient2988"
       x1="0.092813492"
       y1="10.202362"
       x2="0.092813492"
       y2="13.470933"
       gradientUnits="userSpaceOnUse"
       gradientTransform="matrix(2.3651878,0,0,2.447553,35.780478,19.029177)" />
    <linearGradient
       inkscape:collect="always"
       id="linearGradient2986">
      <stop
         style="stop-color:#818990;stop-opacity:1;"
         offset="0"
         id="stop2982" />
      <stop
         style="stop-color:#9fa8b0;stop-opacity:1"
         offset="1"
         id="stop2984" />
    </linearGradient>
    <linearGradient
       inkscape:collect="always"
       xlink:href="#linearGradient1116"
       id="linearGradient1908"
       x1="4"
       y1="32"
       x2="60"
       y2="32"
       gradientUnits="userSpaceOnUse"
       gradientTransform="translate(0,-4.0000002)" />
    <linearGradient
       inkscape:collect="always"
       id="linearGradient1116">
      <stop
         style="stop-color:#555a5f;stop-opacity:1;"
         offset="0"
         id="stop1112" />
      <stop
         style="stop-color:#4b4f53;stop-opacity:1"
         offset="1"
         id="stop1114" />
    </linearGradient>
    <linearGradient
       inkscape:collect="always"
       id="linearGradient2301">
      <stop
         style="stop-color:#b8dcff;stop-opacity:1;"
         offset="0"
         id="stop2297" />
      <stop
         style="stop-color:#41b6ff;stop-opacity:1;"
         offset="0"
         id="stop2299" />
    </linearGradient>
    <linearGradient
       inkscape:collect="always"
       xlink:href="#linearGradient2301"
       id="linearGradient3041"
       x1="5"
       y1="9.999999"
       x2="59"
       y2="46"
       gradientUnits="userSpaceOnUse" />
    <linearGradient
       inkscape:collect="always"
       xlink:href="#o"
       id="linearGradient7"
       gradientUnits="userSpaceOnUse"
       x1="34.6875"
       y1="21.8599"
       x2="34.6875"
       y2="46.5" />
    <linearGradient
       id="o"
       x1="34.6875"
       x2="34.6875"
       y1="21.8599"
       y2="46.5"
       gradientUnits="userSpaceOnUse">
      <stop
         stop-color="#fff"
         offset="0"
         id="stop24" />
      <stop
         stop-color="#fff"
         stop-opacity=".5"
         offset="1"
         id="stop25" />
    </linearGradient>
    <linearGradient
       id="n"
       x1="34.6875"
       x2="34.6875"
       y1="40.7672"
       y2="59.002899"
       gradientUnits="userSpaceOnUse"
       gradientTransform="matrix(0.87864276,0,0,0.88,4.6339878,-0.11723667)">
      <stop
         stop-color="#a96535"
         stop-opacity="0"
         offset="0"
         id="stop22" />
      <stop
         stop-color="#a96535"
         offset="1"
         id="stop23" />
    </linearGradient>
    <linearGradient
       id="m"
       x1="34.0718"
       x2="34.0718"
       y1="21.614599"
       y2="59.0033"
       gradientUnits="userSpaceOnUse"
       gradientTransform="matrix(0.87864276,0,0,0.88,4.6339878,-0.11723667)">
      <stop
         stop-color="#fccec0"
         offset="0"
         id="stop20" />
      <stop
         stop-color="#c98350"
         offset="1"
         id="stop21" />
    </linearGradient>
    <linearGradient
       inkscape:collect="always"
       xlink:href="#o"
       id="linearGradient8"
       gradientUnits="userSpaceOnUse"
       x1="34.6875"
       y1="21.8599"
       x2="34.6875"
       y2="46.5" />
    <linearGradient
       inkscape:collect="always"
       xlink:href="#o"
       id="linearGradient9"
       gradientUnits="userSpaceOnUse"
       x1="34.6875"
       y1="21.8599"
       x2="34.6875"
       y2="46.5" />
    <linearGradient
       inkscape:collect="always"
       xlink:href="#o"
       id="linearGradient10"
       gradientUnits="userSpaceOnUse"
       x1="34.6875"
       y1="21.8599"
       x2="34.6875"
       y2="46.5" />
  </defs>
  <path
     id="rect958"
     style="fill:#bcc5cf;stroke-width:5.34524;stroke-linecap:round;stroke-linejoin:round"
     d="M 19.428571,51 H 44.571429 L 48,54 H 16 Z"
     sodipodi:nodetypes="ccccc" />
  <rect
     style="display:inline;fill:url(#linearGradient2988);fill-opacity:1;stroke-width:3.18297;stroke-linecap:round;stroke-linejoin:round"
     id="rect2848"
     width="8"
     height="8"
     x="28"
     y="43.999992" />
  <rect
     style="display:inline;opacity:1;fill:url(#linearGradient1908);fill-opacity:1;stroke-width:0;stroke-linecap:round;stroke-dasharray:none;paint-order:fill markers stroke"
     id="rect1537"
     width="56"
     height="38"
     x="4"
     y="8.999999"
     ry="0"
     inkscape:label="rect1537" />
  <rect
     style="display:inline;fill:url(#linearGradient3041);fill-opacity:1;stroke-width:1;stroke-linecap:round;stroke-dasharray:none;paint-order:fill markers stroke"
     id="rect1910"
     width="54"
     height="36"
     x="5"
     y="9.999999"
     ry="0" />
  <path
     style="display:inline;opacity:1;fill:#bcc5cf;fill-opacity:1;stroke-width:4;paint-order:fill markers stroke"
     d="M 4.0077281,8.9973222 5.1268435,7.99284 58.820808,7.99464 59.999982,9.002889 Z"
     id="path1"
     sodipodi:nodetypes="ccccc" />
  <rect
     style="fill:#44484c;fill-opacity:1;stroke-width:4.02275;stroke-linecap:round;stroke-linejoin:round"
     id="rect1839"
     width="32"
     height="1.1327676"
     x="16"
     y="54" />
  <path
     d="m 41.536983,21.002763 a 8.7864276,8.8 0 0 1 -8.786427,8.8 8.7864276,8.8 0 0 1 -8.786428,-8.8 8.7864276,8.8 0 0 1 8.786428,-8.8 8.7864276,8.8 0 0 1 8.786427,8.8 z"
     style="color:#3daee9;display:inline;fill:#61cbe9;fill-opacity:1;stroke-width:0.879321"
     class="ColorScheme-Highlight"
     opacity="0.5"
     id="path35" />
  <path
     d="m 39.779698,21.002763 a 7.0291421,7.04 0 0 1 -7.029142,7.04 7.0291421,7.04 0 0 1 -7.029142,-7.04 7.0291421,7.04 0 0 1 7.029142,-7.04 7.0291421,7.04 0 0 1 7.029142,7.04 z"
     style="color:#3daee9;display:inline;fill:currentColor;stroke-width:0.879321"
     class="ColorScheme-Highlight"
     id="path36" />
  <path
     d="m 39.779698,21.002763 a 7.0291421,7.04 0 0 1 -7.029142,7.04 7.0291421,7.04 0 0 1 -7.029142,-7.04 7.0291421,7.04 0 0 1 7.029142,-7.04 7.0291421,7.04 0 0 1 7.029142,7.04 z"
     fill="#000000"
     fill-opacity="0.4"
     id="path37"
     style="display:inline;stroke-width:0.879321;fill:#1c2c56;fill-opacity:0.40000001" />
  <path
     d="m 33.942347,51.362763 c 3.706466,0.494912 8.319165,0.448184 8.860057,0.440792 0.03567,-5.28e-4 0.07073,-7.04e-4 0.106404,-9.68e-4 3.362566,-0.02147 5.979516,-2.060344 6.390281,-5.24876 l 1.024322,-7.071064 c 0.878643,-5.28 -3.07525,-6.6 -4.393214,-3.96 0,-3.08 -3.514571,-4.84 -5.271857,-2.2 0,-2.64 -3.514571,-4.4 -5.271856,-1.76 v -9.68 c 0,-3.52 -5.271857,-4.4 -5.271857,0 v 18.04 c 0,0 -0.882772,-1.324136 -1.757285,-2.2 -5.990587,-5.999928 -7.907785,-0.88 -7.907785,-0.88 3.514571,2.64 6.902969,13.64 13.49279,14.52 z"
     fill="url(#m)"
     id="path39"
     style="display:inline;fill:url(#m);stroke-width:0.879321" />
  <path
     d="m 33.942435,50.482763 c 3.706378,0.495 8.319077,0.448184 8.860057,0.440792 0.03567,-4.4e-4 0.07064,-7.04e-4 0.106316,-9.68e-4 3.293505,-0.02103 5.998318,-2.007192 6.494049,-5.084728 l -0.103768,0.716056 c -0.410765,3.188328 -3.027715,5.2272 -6.390281,5.248672 -0.03567,2.64e-4 -0.07064,5.28e-4 -0.106316,9.68e-4 -0.54098,0.0074 -5.153679,0.05421 -8.860057,-0.440792 -4.226975,-0.564432 -7.136776,-5.29276 -9.60752,-9.307672 -1.381138,-2.244264 -2.625209,-4.265712 -3.885358,-5.212328 1.14944,1.028896 2.623891,2.282544 3.885358,4.332328 2.470744,4.014912 5.380545,8.74324 9.60752,9.307672 z m 15.460422,-4.644904 0.02821,-0.195008 c -0.0085,0.06547 -0.01783,0.130504 -0.02821,0.195008 z"
     clip-rule="evenodd"
     fill="url(#n)"
     fill-rule="evenodd"
     id="path40"
     style="display:inline;fill:url(#n);stroke-width:0.879321" />
  <g
     fill="url(#o)"
     opacity="0.5"
     id="g43"
     style="display:inline;fill:url(#linearGradient7)"
     transform="matrix(0.87864276,0,0,0.88,4.6339877,-0.11723667)">
    <path
       d="m 18,42 c 0.8696,-1.3083 3.743,-3.2571 9,2 0.9953,0.9953 2,1.5 2,1.5 0,0 -1.0047,-1.5047 -2,-2.5 -6.818,-6.8181 -9,-1 -9,-1 z"
       id="path41"
       style="fill:url(#linearGradient8)" />
    <path
       d="m 29,26 c 0,-5 6,-4 6,0 v -1 c 0,-4 -6,-5 -6,0 z"
       id="path42"
       style="fill:url(#linearGradient9)" />
    <path
       d="m 35,36 c 2,-3 6,-1 6,2 2,-3 6,-1 6,2.5 1.4009,-2.8017 5.4182,-1.6787 5.1287,3.369 C 51.8699,39.6836 48.303,38.894 47,41.5 47,38 43,36 41,39 41,36 37,34 35,37 Z"
       id="path43"
       style="fill:url(#linearGradient10)" />
  </g>
</svg>
