<?xml version="1.0" encoding="UTF-8" standalone="no"?>
<!-- Created with Inkscape (http://www.inkscape.org/) -->

<svg
   width="16"
   height="16"
   viewBox="0 0 16 16"
   version="1.1"
   id="svg2112"
   inkscape:version="1.3.2 (091e20e, 2023-11-25)"
   sodipodi:docname="user.svg"
   xmlns:inkscape="http://www.inkscape.org/namespaces/inkscape"
   xmlns:sodipodi="http://sodipodi.sourceforge.net/DTD/sodipodi-0.dtd"
   xmlns="http://www.w3.org/2000/svg"
   xmlns:svg="http://www.w3.org/2000/svg">
  <sodipodi:namedview
     id="namedview2114"
     pagecolor="#ffffff"
     bordercolor="#000000"
     borderopacity="0.25"
     inkscape:showpageshadow="2"
     inkscape:pageopacity="0.0"
     inkscape:pagecheckerboard="0"
     inkscape:deskcolor="#d1d1d1"
     inkscape:document-units="px"
     showgrid="false"
     inkscape:zoom="50.125"
     inkscape:cx="8.0199501"
     inkscape:cy="8.0299252"
     inkscape:window-width="1680"
     inkscape:window-height="994"
     inkscape:window-x="0"
     inkscape:window-y="25"
     inkscape:window-maximized="1"
     inkscape:current-layer="svg2112" />
  <defs
     id="defs2109">
    <style
       id="current-color-scheme"
       type="text/css">
   .ColorScheme-Text { color:#363636; }
    </style>
  </defs>
  <path
     style="fill:#b4b4b4;fill-opacity:1;stroke:none"
     d="m429.71429 533.79074a3 3 0 0 0 -3 3 3 3 0 0 0 3 3 3 3 0 0 0 3 -3 3 3 0 0 0 -3 -3m0 1a2 2 0 0 1 2 2 2 2 0 0 1 -2 2 2 2 0 0 1 -2 -2 2 2 0 0 1 2 -2m0 6a5 4.5 0 0 0 -5 4.5 5 4.5 0 0 0 .0332 .5h9.93a5 4.5 0 0 0 .0371 -.5 5 4.5 0 0 0 -5 -4.5m.00005 1a4 3.5 0 0 1 3.95508 3h-7.91a4 3.5 0 0 1 3.95508 -3"
     transform="translate(-421.71-531.79)"
     class="ColorScheme-Text"
     id="path1" />
</svg>
