<?xml version="1.0" encoding="UTF-8" standalone="no"?>
<!-- Created with Inkscape (http://www.inkscape.org/) -->

<svg
   width="64"
   height="64"
   viewBox="0 0 64 64"
   version="1.1"
   id="svg1015"
   inkscape:version="1.3.2 (091e20e, 2023-11-25)"
   sodipodi:docname="preferences-system-splash.svg"
   inkscape:export-filename="../../../24/apps-settings/preferences-system-splash.png"
   inkscape:export-xdpi="41.142857"
   inkscape:export-ydpi="41.142857"
   xmlns:inkscape="http://www.inkscape.org/namespaces/inkscape"
   xmlns:sodipodi="http://sodipodi.sourceforge.net/DTD/sodipodi-0.dtd"
   xmlns:xlink="http://www.w3.org/1999/xlink"
   xmlns="http://www.w3.org/2000/svg"
   xmlns:svg="http://www.w3.org/2000/svg">
  <sodipodi:namedview
     id="namedview1017"
     pagecolor="#ffffff"
     bordercolor="#000000"
     borderopacity="0.25"
     inkscape:showpageshadow="2"
     inkscape:pageopacity="0.0"
     inkscape:pagecheckerboard="0"
     inkscape:deskcolor="#d1d1d1"
     inkscape:document-units="px"
     showgrid="false"
     inkscape:zoom="4"
     inkscape:cx="-30"
     inkscape:cy="10.125"
     inkscape:window-width="1680"
     inkscape:window-height="994"
     inkscape:window-x="0"
     inkscape:window-y="25"
     inkscape:window-maximized="1"
     inkscape:current-layer="svg1015" />
  <defs
     id="defs1012">
    <linearGradient
       inkscape:collect="always"
       xlink:href="#linearGradient2986"
       id="linearGradient2988"
       x1="0.092813492"
       y1="10.202362"
       x2="0.092813492"
       y2="13.470933"
       gradientUnits="userSpaceOnUse"
       gradientTransform="matrix(2.3651878,0,0,2.447553,35.780478,19.029177)" />
    <linearGradient
       inkscape:collect="always"
       id="linearGradient2986">
      <stop
         style="stop-color:#818990;stop-opacity:1;"
         offset="0"
         id="stop2982" />
      <stop
         style="stop-color:#9fa8b0;stop-opacity:1"
         offset="1"
         id="stop2984" />
    </linearGradient>
    <linearGradient
       inkscape:collect="always"
       xlink:href="#linearGradient1116"
       id="linearGradient1908"
       x1="4"
       y1="32"
       x2="60"
       y2="32"
       gradientUnits="userSpaceOnUse"
       gradientTransform="translate(0,-4.0000002)" />
    <linearGradient
       inkscape:collect="always"
       id="linearGradient1116">
      <stop
         style="stop-color:#555a5f;stop-opacity:1;"
         offset="0"
         id="stop1112" />
      <stop
         style="stop-color:#4b4f53;stop-opacity:1"
         offset="1"
         id="stop1114" />
    </linearGradient>
    <linearGradient
       inkscape:collect="always"
       id="linearGradient2301">
      <stop
         style="stop-color:#b8dcff;stop-opacity:1;"
         offset="0"
         id="stop2297" />
      <stop
         style="stop-color:#41b6ff;stop-opacity:1;"
         offset="0"
         id="stop2299" />
    </linearGradient>
    <linearGradient
       inkscape:collect="always"
       xlink:href="#linearGradient2301"
       id="linearGradient3041"
       x1="5"
       y1="9.999999"
       x2="59"
       y2="46"
       gradientUnits="userSpaceOnUse" />
  </defs>
  <path
     id="rect958"
     style="display:inline;fill:#bcc5cf;stroke-width:5.64636;stroke-linecap:round;stroke-linejoin:round"
     d="m 18.117175,51.000004 h 28.055406 l 3.825738,3 H 14.291438 Z"
     sodipodi:nodetypes="ccccc" />
  <rect
     style="display:inline;fill:url(#linearGradient2988);fill-opacity:1;stroke-width:3.18297;stroke-linecap:round;stroke-linejoin:round"
     id="rect2848"
     width="8"
     height="8"
     x="28"
     y="43.999992" />
  <rect
     style="display:inline;opacity:1;fill:url(#linearGradient1908);fill-opacity:1;stroke-width:0;stroke-linecap:round;stroke-dasharray:none;paint-order:fill markers stroke"
     id="rect1537"
     width="56"
     height="38"
     x="4"
     y="8.999999"
     ry="0"
     inkscape:label="rect1537" />
  <rect
     style="display:inline;fill:url(#linearGradient3041);fill-opacity:1;stroke-width:1;stroke-linecap:round;stroke-dasharray:none;paint-order:fill markers stroke"
     id="rect1910"
     width="54"
     height="36"
     x="5"
     y="9.999999"
     ry="0" />
  <rect
     style="display:inline;fill:#44484c;fill-opacity:1;stroke-width:5.64174;stroke-linecap:round;stroke-linejoin:round"
     id="rect1839"
     width="35.622772"
     height="1.2029943"
     x="14.321737"
     y="54.000004" />
  <path
     id="path310"
     style="display:inline;opacity:0.5;fill:#ffffff;stroke-linecap:square;stroke-linejoin:bevel"
     d="m 32,16 c -6.627417,0 -12,5.372583 -12,12 0,6.627417 5.372583,12 12,12 6.627417,0 12,-5.372583 12,-12 0,-6.627417 -5.372583,-12 -12,-12 z m 0,2 c 5.522847,0 10,4.477153 10,10 0,5.522847 -4.477153,10 -10,10 -5.522847,0 -10,-4.477153 -10,-10 0,-5.522847 4.477153,-10 10,-10 z" />
  <path
     id="path449"
     style="display:inline;fill:#ffffff;stroke-linecap:square;stroke-linejoin:bevel"
     d="m 32,16 v 2 c 5.522841,0 10,4.477159 10,10 0,2.761421 -1.120045,5.26067 -2.929688,7.070312 l 1.414063,1.414063 c 0.123029,-0.123029 0.243711,-0.2487 0.361328,-0.376953 a 12,12 0 0 0 0.03711,-0.03906 c 0.0068,-0.0075 0.01271,-0.0159 0.01953,-0.02344 0.09562,-0.105741 0.189396,-0.213154 0.28125,-0.322266 a 12,12 0 0 0 0.03125,-0.03711 12,12 0 0 0 0.08789,-0.109375 c 0.105526,-0.129415 0.210397,-0.25876 0.310547,-0.392578 a 12,12 0 0 0 0.002,-0.0039 c 0.09035,-0.120813 0.17783,-0.244871 0.263672,-0.369141 a 12,12 0 0 0 0.117188,-0.171875 c 0.0044,-0.0066 0.0093,-0.01291 0.01367,-0.01953 a 12,12 0 0 0 0.185546,-0.291016 12,12 0 0 0 0.158204,-0.261719 c 0.0065,-0.01109 0.01305,-0.02209 0.01953,-0.0332 a 12,12 0 0 0 0.169922,-0.300781 12,12 0 0 0 0.07617,-0.144531 c 0.03987,-0.07562 0.0789,-0.151954 0.117187,-0.228516 a 12,12 0 0 0 0.259766,-0.554687 12,12 0 0 0 0.11914,-0.28125 c 0.0051,-0.01242 0.01061,-0.02467 0.01563,-0.03711 a 12,12 0 0 0 0.0332,-0.08594 12,12 0 0 0 0.199219,-0.542969 c 0.002,-0.0058 0.0039,-0.01174 0.0059,-0.01758 a 12,12 0 0 0 0.0059,-0.01563 12,12 0 0 0 0.195312,-0.644531 12,12 0 0 0 0.08594,-0.326172 c 6.36e-4,-0.0026 0.0013,-0.0052 0.002,-0.0078 a 12,12 0 0 0 0.07617,-0.335937 12,12 0 0 0 0.04297,-0.214844 c 0.02314,-0.119433 0.04488,-0.238707 0.06445,-0.359375 a 12,12 0 0 0 0.03711,-0.242188 c 0.01764,-0.124872 0.03311,-0.250875 0.04687,-0.376953 a 12,12 0 0 0 0.01367,-0.11914 c 0.01629,-0.164345 0.02947,-0.329868 0.03906,-0.496094 a 12,12 0 0 0 0.0078,-0.169922 c 0.0074,-0.169247 0.01337,-0.33877 0.01367,-0.509766 a 12,12 0 0 0 0,-0.05469 c -4.94e-4,-0.18143 -0.0052,-0.361564 -0.01367,-0.541016 a 12,12 0 0 0 -0.002,-0.04297 c -8.64e-4,-0.01704 -0.003,-0.03376 -0.0039,-0.05078 -0.0093,-0.170253 -0.02269,-0.339523 -0.03906,-0.507812 a 12,12 0 0 0 -0.0039,-0.05078 c -0.0012,-0.01177 -0.0027,-0.0234 -0.0039,-0.03516 -0.01649,-0.15773 -0.03801,-0.314852 -0.06055,-0.470703 a 12,12 0 0 0 -0.02344,-0.166016 c -0.02369,-0.149054 -0.05095,-0.296186 -0.08008,-0.443359 a 12,12 0 0 0 -0.03906,-0.183594 c -0.01571,-0.07331 -0.03178,-0.145943 -0.04883,-0.21875 a 12,12 0 0 0 -0.125,-0.488281 c -0.0054,-0.01945 -0.0101,-0.03919 -0.01563,-0.05859 a 12,12 0 0 0 -0.02148,-0.07031 12,12 0 0 0 -0.1875,-0.585938 12,12 0 0 0 -0.113281,-0.314453 c -0.0012,-0.0033 -0.0027,-0.0065 -0.0039,-0.0098 a 12,12 0 0 0 -0.01758,-0.04102 12,12 0 0 0 -0.111328,-0.279297 12,12 0 0 0 -0.607422,-1.253906 c -0.0031,-0.0056 -0.0047,-0.012 -0.0078,-0.01758 a 12,12 0 0 0 -0.01367,-0.02148 12,12 0 0 0 -0.720703,-1.125 c -0.01719,-0.02383 -0.03342,-0.04856 -0.05078,-0.07227 a 12,12 0 0 0 -0.845703,-1.03125 c -0.02708,-0.02949 -0.05661,-0.05672 -0.08398,-0.08594 a 12,12 0 0 0 -0.921875,-0.886719 c -0.02551,-0.02201 -0.05048,-0.04461 -0.07617,-0.06641 A 12,12 0 0 0 38.666158,18.02145 12,12 0 0 0 37.451314,17.310513 c -0.0013,-6.62e-4 -0.0026,-0.0013 -0.0039,-0.002 a 12,12 0 0 0 -0.0039,-0.002 12,12 0 0 0 -2.642578,-0.97461 12,12 0 0 0 -1.357422,-0.242187 c -0.01956,-0.0023 -0.03901,-0.0056 -0.05859,-0.0078 A 12,12 0 0 0 32,16 Z" />
  <path
     style="display:inline;opacity:1;fill:#bcc5cf;fill-opacity:1;stroke-width:4;paint-order:fill markers stroke"
     d="M 4.0077281,8.9973222 5.1268435,7.99284 58.820808,7.99464 59.999982,9.002889 Z"
     id="path1"
     sodipodi:nodetypes="ccccc" />
</svg>
